<?xml version="1.0" encoding="UTF-8"?>
<!-- Generated by Pixelmator Pro 4.0 -->
<svg width="3000" height="3000" viewBox="0 0 3000 3000" xmlns="http://www.w3.org/2000/svg">
    <g id="Group">
        <path id="L" fill="#000000" stroke="none" d="M 171.569733 2853 L 171.569733 151.199951 L 356.923004 151.199951 L 356.923004 2684.770508 L 1140.852051 2684.770508 L 1140.852051 2853 Z"/>
        <g id="g1">
            <text id="O" transform="matrix(0.74927 -0.662265 0.662265 0.74927 -466.275643 1045.405028)" xml:space="preserve" x="545" y="1750" font-family="Space Grotesk" font-size="1762.400999" fill="#000000">O</text>
            <text id="text1" transform="matrix(0.74927 -0.662265 0.662265 0.74927 -838.060029 1263.394092)" xml:space="preserve" x="647" y="2350" font-family="Space Grotesk" font-size="1762.400999" fill="#000000">O</text>
        </g>
        <path id="P" fill="#000000" stroke="none" d="M 1968.569702 2853 L 1968.569702 151.199951 L 2386.607178 151.199951 C 2479.826416 151.199951 2563.178955 169.182861 2636.668213 205.148926 C 2710.157227 241.11499 2768.199219 292.428467 2810.795654 359.091064 C 2853.392334 425.753418 2874.69043 506.212158 2874.69043 600.468994 L 2874.69043 628.351563 C 2874.69043 722.193359 2852.919678 802.807617 2809.377441 870.196533 C 2765.835205 937.585205 2707.320313 989.002808 2633.831299 1024.449951 C 2560.342285 1059.897217 2477.935303 1077.620728 2386.607178 1077.620728 L 2153.923096 1077.620728 L 2153.923096 2853 Z M 2153.923096 909.391113 L 2367.269287 909.391113 C 2465.977295 909.391113 2544.331543 884.443604 2602.33374 834.547607 C 2660.336182 784.651611 2689.337158 714.963379 2689.337158 625.480225 L 2689.337158 603.340332 C 2689.337158 512.819336 2660.86084 442.871582 2603.907715 393.494629 C 2546.95459 344.117676 2468.076172 319.429199 2367.269287 319.429199 L 2153.923096 319.429199 Z"/>
    </g>
</svg>
